<svg id="Ebene_1" data-name="Ebene 1" xmlns="http://www.w3.org/2000/svg" viewBox="0 0 737.01 340.16"><defs><style>.cls-1{fill:#565960}.cls-2{fill:#c76e3f}.cls-3{fill:#c03839}.cls-4{fill:#833b4e}</style></defs><title>1047_7435_Logo arbeit.swiss</title><path class="cls-1" d="M184.58 125.62c0 3 1.68 4.42 4.95 4.42h3.54l1.5 9.11c-2.21 1.15-7.61 1.77-10.44 1.77-7.69 0-12.56-4.34-12.56-12V77.94h13zM242.43 111v28.84h-10.35l-1.33-6.64a21 21 0 0 1-16.1 7.7c-8.14 0-14.24-4.42-14.24-12.56v-4.42c0-7 5-11.06 13.36-11.06h15.56v-1.95c-.08-4.42-1.59-5.66-7.16-5.66-4.16 0-11.41.27-18.4.71l-1.24-8.85A155.3 155.3 0 0 1 225.27 95c11.23 0 17.16 3.73 17.16 16zm-29.11 15.57c0 3.09 1.6 4.51 5.13 4.51 3 0 7.17-1.42 10.88-4.25v-6.1h-11.76c-3.18.09-4.25 1.68-4.25 4.16zM284.35 136.76a4.37 4.37 0 0 1-4.24 3.1h-11.32a4.38 4.38 0 0 1-4.25-3.1l-14.33-40.51h13.89l7.9 27.33c.71 2.57 1.33 5.22 1.86 7.79H275c.71-2.57 1.33-5.22 2-7.79l7.88-27.33h13.79zM350 118.1c0 16.71-6.1 22.91-22.38 22.91s-22.47-6.2-22.47-22.91 6.1-23.1 22.46-23.1S350 101.29 350 118.1zm-31.14 0c0 10.43 1.86 13.09 8.76 13.09 6.72 0 8.67-2.66 8.67-13.09 0-10.62-1.95-13.27-8.67-13.27-6.91 0-8.77 2.65-8.77 13.27zM391.12 107.13h-3.54c-3.8 0-7.43 1-13.35 3v29.72h-13.1v-43.6h10.18l1.15 6.46c5.83-5 12-7.7 17.69-7.7h2.3zM443.93 118.1c0 16.71-6.1 22.91-22.38 22.91s-22.47-6.2-22.47-22.91S405.19 95 421.55 95s22.38 6.29 22.38 23.1zm-31.14 0c0 10.43 1.86 13.09 8.76 13.09 6.72 0 8.67-2.66 8.67-13.09 0-10.62-2-13.27-8.67-13.27-6.9 0-8.76 2.65-8.76 13.27zM462.33 126.5c3.45 0 4.6 1.06 4.6 4.51v4.25c0 3.45-1.15 4.6-4.6 4.6h-3.54c-3.45 0-4.6-1.15-4.6-4.6V131c0-3.45 1.15-4.51 4.6-4.51zM513.37 97l-.71 6.2c-5.4-.18-11-.45-16.36-.45-7.7 0-10.09.09-10.09 4.78 0 4.16 2 4.51 6.11 5.66l12.2 3c7 1.86 10.09 4.6 10.09 12.12 0 10.61-5.84 12.47-18.76 12.47a116.14 116.14 0 0 1-17.16-1.24l.62-6.37c4 .36 9.2.45 14.77.45 9.47 0 12.21-.89 12.21-5.31 0-4-2.48-4.42-6.54-5.49l-12-3c-7.17-1.86-9.82-5.22-9.82-12.3 0-9.82 5-12.12 17.07-12A139.38 139.38 0 0 1 513.37 97zM579.8 137.47a3.18 3.18 0 0 1-3.27 2.39h-7.7a3.3 3.3 0 0 1-3.27-2.75l-6.28-28.39c-.45-2.3-.8-4.6-1.33-6.9h-1.06c-.44 2.3-1 4.6-1.42 6.9l-6.19 28.39a3.33 3.33 0 0 1-3.36 2.75h-7.61a3.08 3.08 0 0 1-3.18-2.39l-12.21-40.78h8.85l8.31 31.14a59.84 59.84 0 0 1 1.33 6.63h1.15c.53-2.21 1.06-4.42 1.5-6.63l6.37-28.49a3.15 3.15 0 0 1 3.19-2.65h7.69a3.21 3.21 0 0 1 3.18 2.74l6.29 28.4c.44 2.21 1 4.33 1.5 6.63h1.15a57.62 57.62 0 0 1 1.33-6.63l8.31-31.14h8.85zM609.43 78.29a2.24 2.24 0 0 1 2.48 2.48v5c0 1.68-.8 2.57-2.48 2.57h-4.07c-1.68 0-2.47-.89-2.47-2.57v-5a2.24 2.24 0 0 1 2.47-2.48zm-6.28 61.57V96.69h8.49v43.17zM660.56 97l-.71 6.2c-5.39-.18-11-.45-16.36-.45-7.7 0-10.09.09-10.09 4.78 0 4.16 2 4.51 6.11 5.66l12.2 3c7 1.86 10.09 4.6 10.09 12.12 0 10.61-5.84 12.47-18.76 12.47a116.23 116.23 0 0 1-17.16-1.24l.62-6.37c4 .36 9.2.45 14.78.45 9.46 0 12.2-.89 12.2-5.31 0-4-2.47-4.42-6.54-5.49l-12-3c-7.17-1.86-9.82-5.22-9.82-12.3 0-9.82 5-12.12 17.07-12A139.38 139.38 0 0 1 660.56 97zM707.79 97l-.7 6.2c-5.4-.18-11-.45-16.37-.45-7.69 0-10.08.09-10.08 4.78 0 4.16 2 4.51 6.1 5.66l12.21 3c7 1.86 10.08 4.6 10.08 12.12 0 10.61-5.83 12.47-18.75 12.47a116.14 116.14 0 0 1-17.16-1.24l.62-6.37c4 .36 9.2.45 14.77.45 9.47 0 12.21-.89 12.21-5.31 0-4-2.48-4.42-6.55-5.49l-12-3c-7.16-1.86-9.82-5.22-9.82-12.3 0-9.82 5-12.12 17.08-12A139.09 139.09 0 0 1 707.79 97z"/><path class="cls-2" d="M44.96 180.65v-40.42h44.9v-44.9h40.42v41.37h-13.21v30.83H86.25v13.12H44.96z"/><path class="cls-3" d="M44.96 180.65v40.41h44.9v44.9h40.42v-41.37h-13.21v-30.83H86.25v-13.11H44.96z"/><path class="cls-4" d="M130.28 265.88h40.41v-44.9h44.91v-40.42h-41.38v13.21H143.4v30.82h-13.12v41.29z"/></svg>