<svg id="Ebene_1" data-name="Ebene 1" xmlns="http://www.w3.org/2000/svg" viewBox="0 0 737.01 340.16"><defs><style>.cls-1{fill:#565960}.cls-2{fill:#c76e3f}.cls-3{fill:#c03839}.cls-4{fill:#833b4e}</style></defs><title>1047_7435_Logo arbeit.swiss</title><path class="cls-1" d="M233.78 136.67a4.47 4.47 0 0 1-4.51 3.45H219a4.61 4.61 0 0 1-4.69-4l-4.42-24.68c-.35-2.47-.53-4.86-1-7.34h-1.06l-1.07 7.34-4.33 24.68a4.63 4.63 0 0 1-4.78 4h-10.04a4.47 4.47 0 0 1-4.51-3.45l-10.7-40.15h13.18l5.92 28.3a65.61 65.61 0 0 1 1.06 7.17h1.15c.36-2.39.8-4.78 1.15-7.17l4.43-24.41a4.35 4.35 0 0 1 4.51-3.89h9.2a4.46 4.46 0 0 1 4.6 4l4.33 24.32c.35 2.39.89 4.78 1.24 7.17h1.06c.35-2.39.53-4.69 1.06-7.17l6-28.3h13.18zM296.5 118.36c0 16.72-6.1 22.91-22.38 22.91s-22.47-6.19-22.47-22.91 6.11-23.08 22.47-23.08 22.38 6.28 22.38 23.08zm-31.14 0c0 10.44 1.86 13.1 8.76 13.1 6.72 0 8.67-2.66 8.67-13.1 0-10.61-2-13.26-8.67-13.26-6.9 0-8.76 2.65-8.76 13.26zM337.63 107.4h-3.54c-3.8 0-7.43 1-13.35 3v29.72h-13.09v-43.6h10.17L319 103c5.84-5 12-7.69 17.69-7.69H339zM359.92 119.87a44.31 44.31 0 0 1 .62 6.54v13.71h-13.09V78.21h13.09v25.56a46 46 0 0 1-.62 8H364l10.79-15.21h14.69l-11.33 15.12a15.21 15.21 0 0 1-4.06 4.16v.16a16.94 16.94 0 0 1 4.06 4.68L391 140.12h-14.71L364 119.87zM406.19 126.77c3.45 0 4.6 1.06 4.6 4.51v4.24c0 3.45-1.15 4.6-4.6 4.6h-3.54c-3.45 0-4.6-1.15-4.6-4.6v-4.24c0-3.45 1.15-4.51 4.6-4.51zM457.22 97.31l-.7 6.19c-5.4-.17-11-.44-16.37-.44-7.69 0-10.08.09-10.08 4.78 0 4.16 2 4.51 6.1 5.66l12.21 3c7 1.85 10.08 4.6 10.08 12.12 0 10.61-5.84 12.47-18.75 12.47a116.14 116.14 0 0 1-17.16-1.24l.62-6.37c4 .35 9.2.44 14.77.44 9.47 0 12.21-.88 12.21-5.3 0-4-2.48-4.43-6.55-5.49l-12-3c-7.16-1.85-9.82-5.22-9.82-12.29 0-9.82 5.05-12.12 17.08-12a139.09 139.09 0 0 1 18.36 1.47zM523.65 137.74a3.17 3.17 0 0 1-3.27 2.38h-7.69a3.31 3.31 0 0 1-3.28-2.74L503.13 109c-.44-2.3-.79-4.6-1.32-6.9h-1.07c-.44 2.3-1 4.6-1.41 6.9l-6.19 28.39a3.33 3.33 0 0 1-3.36 2.74h-7.61a3.09 3.09 0 0 1-3.19-2.38L466.78 97h8.84l8.32 31.13a58.16 58.16 0 0 1 1.32 6.64h1.15c.54-2.21 1.07-4.42 1.51-6.64l6.37-28.48a3.14 3.14 0 0 1 3.18-2.65h7.7a3.21 3.21 0 0 1 3.18 2.74l6.28 28.39c.44 2.22 1 4.34 1.51 6.64h1.14a60 60 0 0 1 1.33-6.64L526.93 97h8.84zM553.29 78.56a2.24 2.24 0 0 1 2.48 2.44v5c0 1.68-.8 2.57-2.48 2.57h-4.07c-1.68 0-2.48-.89-2.48-2.57v-5a2.24 2.24 0 0 1 2.48-2.48zM547 140.12V97h8.49v43.16zM604.42 97.31l-.71 6.19c-5.4-.17-11-.44-16.37-.44-7.69 0-10.08.09-10.08 4.78 0 4.16 2 4.51 6.1 5.66l12.21 3c7 1.85 10.09 4.6 10.09 12.12 0 10.61-5.84 12.47-18.76 12.47a116.14 116.14 0 0 1-17.16-1.24l.62-6.37c4 .35 9.2.44 14.77.44 9.47 0 12.21-.88 12.21-5.3 0-4-2.48-4.43-6.55-5.49l-12-3c-7.16-1.85-9.81-5.22-9.81-12.29 0-9.82 5-12.12 17.07-12a139.38 139.38 0 0 1 18.37 1.47zM651.65 97.31l-.71 6.19c-5.39-.17-11-.44-16.36-.44-7.7 0-10.08.09-10.08 4.78 0 4.16 2 4.51 6.1 5.66l12.21 3c7 1.85 10.08 4.6 10.08 12.12 0 10.61-5.84 12.47-18.75 12.47a116.14 116.14 0 0 1-17.14-1.23l.62-6.37c4 .35 9.2.44 14.77.44 9.46 0 12.21-.88 12.21-5.3 0-4-2.48-4.43-6.55-5.49l-12-3c-7.17-1.85-9.82-5.22-9.82-12.29 0-9.82 5-12.12 17.07-12a139.38 139.38 0 0 1 18.35 1.46z"/><path class="cls-2" d="M45.07 180.68v-40.41h44.9V95.36h40.42v41.38h-13.21v30.82H86.36v13.12H45.07z"/><path class="cls-3" d="M45.07 180.68v40.41h44.9V266h40.42v-41.38h-13.21V193.8H86.36v-13.12H45.07z"/><path class="cls-4" d="M130.39 265.92h40.41v-44.91h44.91V180.6h-41.38v13.2h-30.82v30.82h-13.12v41.3z"/></svg>