<svg id="Ebene_1" data-name="Ebene 1" xmlns="http://www.w3.org/2000/svg" viewBox="0 0 737.01 340.16"><defs><style>.cls-1{fill:#565960}.cls-2{fill:#c76e3f}.cls-3{fill:#c03839}.cls-4{fill:#833b4e}</style></defs><title>1047_7435_Logo arbeit.swiss</title><path class="cls-1" d="M213 111.56v28.81h-10.3l-1.32-6.63a21 21 0 0 1-16.08 7.69c-8.13 0-14.23-4.42-14.23-12.55v-4.42c0-7 5-11 13.34-11H200v-1.94c-.08-4.42-1.59-5.66-7.15-5.66-4.16 0-11.4.27-18.38.71l-1.24-8.84a156.42 156.42 0 0 1 22.71-2.12c11.18-.04 17.06 3.67 17.06 15.95zm-29 15.55c0 3.1 1.59 4.51 5.13 4.51 3 0 7.15-1.41 10.86-4.24v-6.1h-11.78c-3.18.09-4.24 1.68-4.24 4.16zM255.54 107.68H252c-3.8 0-7.42 1-13.34 3v29.69h-13.07V96.81h10.16l1.15 6.45c5.83-5 12-7.69 17.67-7.69h2.29zM308.64 118.19c0 13.34-3.89 23.24-21.29 23.24-6.19 0-16.79-1.06-22.18-3.36V78.52h13.08l.08 13.87a36.11 36.11 0 0 1-1.23 10.34c4.24-4.42 9.8-7.16 15.55-7.16 11.22 0 15.99 6.43 15.99 22.62zm-13.43.09c0-9.45-1.33-12.28-7.78-12.28-3.44 0-6 1.59-9.27 3.71l.09 21.12a35.42 35.42 0 0 0 8.83.88c5.92-.18 8.13-3.09 8.13-13.43zM358.47 130l1.24 8.13c-5.13 2.47-12.81 3.27-19 3.27-16.52 0-22.7-6.72-22.7-22.8 0-17.22 6.36-23.06 22.17-23.06 14.84 0 20.59 5.22 20.67 15.2 0 8-3.79 12.19-13.25 12.19h-15.72c.88 6.63 3.71 8 10.33 8 3.98.07 10.34-.28 16.26-.93zm-26.86-14.9H344c3.53 0 4.06-2 4.06-4.51 0-4.06-1.76-5.47-7.42-5.47-6.55-.12-8.64 1.76-9.03 9.98zM381.27 77.55c2.56 0 3.8 1.33 3.8 3.8v4.77c0 2.56-1.24 3.8-3.8 3.8h-5.83c-2.56 0-3.8-1.24-3.8-3.8v-4.77c0-2.47 1.24-3.8 3.8-3.8zm-9.37 62.82V96.81h13v43.56zM415.11 126.14c0 3.27 1.23 4.42 4.77 4.42h5.56l1.42 9.1a46.31 46.31 0 0 1-12.28 1.77c-7.87 0-12.46-4.6-12.46-12.55v-23.32h-7.69v-8.31l7.69-.44V84.62h13v12.19h12.1v8.75h-12.1zM443.91 127c3.45 0 4.59 1.06 4.59 4.5v4.24c0 3.45-1.14 4.6-4.59 4.6h-3.53c-3.45 0-4.6-1.15-4.6-4.6v-4.24c0-3.44 1.15-4.5 4.6-4.5zM494.89 97.61l-.71 6.18c-5.39-.18-10.95-.44-16.34-.44-7.69 0-10.07.09-10.07 4.77 0 4.15 2 4.51 6.09 5.65l12.19 3c7 1.85 10.07 4.59 10.07 12.1 0 10.6-5.83 12.46-18.72 12.46a115.84 115.84 0 0 1-17.14-1.24l.61-6.36c4 .35 9.19.44 14.76.44 9.45 0 12.19-.88 12.19-5.3 0-4-2.47-4.42-6.54-5.48l-12-3c-7.16-1.86-9.81-5.21-9.81-12.28 0-9.81 5-12.1 17.05-12a137.25 137.25 0 0 1 18.37 1.5zM561.24 138a3.18 3.18 0 0 1-3.27 2.39h-7.68a3.3 3.3 0 0 1-3.27-2.74l-6.28-28.36c-.44-2.3-.79-4.6-1.32-6.89h-1.06c-.44 2.29-1 4.59-1.42 6.89l-6.18 28.36a3.33 3.33 0 0 1-3.36 2.74h-7.6a3.08 3.08 0 0 1-3.18-2.39l-12.19-40.75h8.84l8.3 31.1a59.84 59.84 0 0 1 1.33 6.65h1.15c.53-2.21 1.06-4.42 1.5-6.63l6.36-28.45a3.14 3.14 0 0 1 3.18-2.65h7.69A3.22 3.22 0 0 1 546 100l6.27 28.36c.44 2.21 1 4.33 1.5 6.63h1.15a59.78 59.78 0 0 1 1.32-6.63l8.31-31.1h8.83zM590.84 78.88a2.24 2.24 0 0 1 2.48 2.47v5c0 1.68-.8 2.56-2.48 2.56h-4.06c-1.68 0-2.48-.88-2.48-2.56v-5a2.24 2.24 0 0 1 2.48-2.47zm-6.27 61.49V97.25h8.48v43.12zM641.91 97.61l-.71 6.18c-5.39-.18-11-.44-16.34-.44-7.69 0-10.07.09-10.07 4.77 0 4.15 2 4.51 6.09 5.65l12.2 3c7 1.85 10.07 4.59 10.07 12.1 0 10.6-5.83 12.46-18.73 12.46a115.84 115.84 0 0 1-17.14-1.24l.62-6.36c4 .35 9.18.44 14.75.44 9.45 0 12.19-.88 12.19-5.3 0-4-2.47-4.42-6.54-5.48l-12-3c-7.16-1.86-9.81-5.21-9.81-12.28 0-9.81 5-12.1 17-12a137.25 137.25 0 0 1 18.42 1.5zM689.09 97.61l-.71 6.18c-5.39-.18-11-.44-16.34-.44-7.69 0-10.07.09-10.07 4.77 0 4.15 2 4.51 6.09 5.65l12.2 3c7 1.85 10.07 4.59 10.07 12.1 0 10.6-5.83 12.46-18.73 12.46a115.84 115.84 0 0 1-17.14-1.24l.62-6.36c4 .35 9.18.44 14.75.44 9.45 0 12.19-.88 12.19-5.3 0-4-2.47-4.42-6.54-5.48l-12-3c-7.16-1.86-9.81-5.21-9.81-12.28 0-9.81 5-12.1 17.05-12a137.25 137.25 0 0 1 18.37 1.5z"/><path class="cls-2" d="M45.03 180.76v-40.41h44.91V95.44h40.41v41.37h-13.21v30.83H86.33v13.12h-41.3z"/><path class="cls-3" d="M45.03 180.76v40.41h44.91v44.91h40.41v-41.37h-13.21v-30.83H86.33v-13.12h-41.3z"/><path class="cls-4" d="M130.35 266h40.41v-44.91h44.91v-40.41h-41.38v13.2h-30.82v30.82h-13.12V266z"/></svg>