<svg xmlns="http://www.w3.org/2000/svg" width="223.972" height="55.993" viewBox="0 0 223.972 55.993"><g fill="#0D0E0E"><path d="M43.275 9.644c.437.277.948.437 1.641.437.917 0 1.674-.469 1.674-1.524 0-1.461-3.411-1.642-3.411-3.592 0-1.194 1.045-1.94 2.356-1.94.362 0 .948.053 1.46.245l-.117.672c-.33-.182-.853-.277-1.354-.277-.767 0-1.609.32-1.609 1.279 0 1.493 3.411 1.503 3.411 3.678 0 1.503-1.289 2.1-2.441 2.1-.725 0-1.289-.149-1.684-.32l.074-.758zM53.103 5.88c-.362-.16-.799-.277-1.162-.277-1.311 0-2.047.949-2.047 2.27 0 1.237.746 2.271 1.972 2.271.427 0 .821-.096 1.226-.245l.064.629c-.459.16-.885.192-1.396.192-1.749 0-2.601-1.333-2.601-2.846 0-1.674 1.077-2.846 2.687-2.846.65 0 1.119.149 1.311.213l-.054.639zM55.128 2.597h.672v3.475h.022a1.844 1.844 0 0 1 1.695-1.045c1.461 0 1.855.97 1.855 2.313v3.251h-.671V7.352c0-.938-.181-1.748-1.29-1.748-1.194 0-1.61 1.13-1.61 2.079v2.91h-.671V2.597zM67.473 10.592h-.81l-1.482-4.701h-.022l-1.482 4.701h-.81l-1.748-5.437h.735l1.428 4.702h.022l1.514-4.702h.81l1.439 4.702h.021l1.503-4.702h.672l-1.79 5.437zM74.658 10.422a4.454 4.454 0 0 1-1.578.298c-1.801 0-2.473-1.215-2.473-2.846 0-1.663.917-2.846 2.292-2.846 1.535 0 2.164 1.237 2.164 2.697v.341h-3.721c0 1.152.619 2.079 1.791 2.079.49 0 1.205-.203 1.525-.405v.682zm-.331-2.932c0-.949-.384-1.887-1.385-1.887-.992 0-1.599.991-1.599 1.887h2.984zM77.844 3.706h-.671v-.895h.671v.895zm-.671 1.45h.671v5.437h-.671V5.156zM79.87 10.028l3.273-4.297h-3.145v-.575h3.923v.576l-3.272 4.285h3.272v.576h-4.05v-.565zM89.581 10.422a4.454 4.454 0 0 1-1.578.298c-1.801 0-2.473-1.215-2.473-2.846 0-1.663.917-2.846 2.292-2.846 1.535 0 2.164 1.237 2.164 2.697v.341h-3.721c0 1.152.619 2.079 1.791 2.079.49 0 1.205-.203 1.525-.405v.682zM89.25 7.49c0-.949-.384-1.887-1.385-1.887-.992 0-1.599.991-1.599 1.887h2.984zM92.096 6.371c0-.597 0-.821-.042-1.215h.671V6.2h.021c.245-.607.704-1.172 1.397-1.172.16 0 .352.032.469.064v.704a1.751 1.751 0 0 0-.49-.064c-1.066 0-1.354 1.194-1.354 2.175v2.687h-.672V6.371zM97.149 3.706h-.672v-.895h.672v.895zm-.672 1.45h.672v5.437h-.672V5.156zM99.26 9.804c.405.203.896.341 1.418.341.64 0 1.204-.352 1.204-.97 0-1.289-2.612-1.087-2.612-2.665 0-1.077.874-1.482 1.77-1.482.288 0 .864.064 1.343.246l-.064.586a3.17 3.17 0 0 0-1.204-.256c-.693 0-1.173.213-1.173.906 0 1.013 2.676.885 2.676 2.665 0 1.152-1.077 1.545-1.898 1.545-.522 0-1.045-.064-1.525-.255l.065-.661zM108.192 5.88c-.362-.16-.799-.277-1.162-.277-1.311 0-2.047.949-2.047 2.27 0 1.237.746 2.271 1.972 2.271.427 0 .821-.096 1.226-.245l.064.629c-.458.16-.885.192-1.396.192-1.749 0-2.601-1.333-2.601-2.846 0-1.674 1.077-2.846 2.687-2.846.65 0 1.119.149 1.311.213l-.054.639zM110.217 2.597h.672v3.475h.021a1.845 1.845 0 0 1 1.695-1.045c1.461 0 1.855.97 1.855 2.313v3.251h-.671V7.352c0-.938-.181-1.748-1.289-1.748-1.194 0-1.61 1.13-1.61 2.079v2.91h-.672V2.597zM120.622 10.422a4.454 4.454 0 0 1-1.578.298c-1.801 0-2.473-1.215-2.473-2.846 0-1.663.917-2.846 2.292-2.846 1.535 0 2.164 1.237 2.164 2.697v.341h-3.721c0 1.152.619 2.079 1.791 2.079.49 0 1.205-.203 1.525-.405v.682zm-.331-2.932c0-.949-.384-1.887-1.385-1.887-.992 0-1.599.991-1.599 1.887h2.984zM126.687 3.152h3.645v.64h-2.91v2.655h2.761v.64h-2.761v2.868h3.038v.64h-3.773V3.152zM133.445 3.706h-.672v-.895h.672v.895zm-.671 1.45h.672v5.437h-.672V5.156zM140.278 10.592h-.672v-.863h-.021c-.363.693-.917.991-1.695.991-1.492 0-2.238-1.236-2.238-2.846 0-1.652.64-2.846 2.238-2.846 1.066 0 1.599.778 1.695 1.045h.021V2.597h.672v7.995zm-2.281-.447c1.194 0 1.609-1.28 1.609-2.271 0-.991-.416-2.27-1.609-2.27-1.279 0-1.61 1.215-1.61 2.27 0 1.056.33 2.271 1.61 2.271zM147.036 10.145c0 1.514-.683 2.75-2.548 2.75-.714 0-1.364-.203-1.642-.288l.053-.671a3.671 3.671 0 0 0 1.599.384c1.727 0 1.876-1.258 1.876-2.793h-.022c-.362.789-.959 1.066-1.652 1.066-1.738 0-2.292-1.514-2.292-2.718 0-1.652.64-2.846 2.238-2.846.725 0 1.194.096 1.695.746h.021v-.619h.672v4.989zm-2.324-.128c1.215 0 1.652-1.152 1.652-2.143 0-1.311-.384-2.27-1.609-2.27-1.279 0-1.61 1.215-1.61 2.27 0 1.066.426 2.143 1.567 2.143zM153.134 10.422a4.454 4.454 0 0 1-1.578.298c-1.801 0-2.473-1.215-2.473-2.846 0-1.663.917-2.846 2.292-2.846 1.535 0 2.164 1.237 2.164 2.697v.341h-3.721c0 1.152.619 2.079 1.791 2.079.49 0 1.205-.203 1.525-.405v.682zm-.331-2.932c0-.949-.384-1.887-1.385-1.887-.992 0-1.6.991-1.6 1.887h2.985zM155.649 6.435c0-.416 0-.842-.042-1.28h.65v.97h.022c.223-.49.628-1.098 1.758-1.098 1.344 0 1.855.895 1.855 2.089v3.475h-.671V7.288c0-1.023-.362-1.684-1.29-1.684-1.226 0-1.61 1.077-1.61 1.983v3.006h-.671V6.435zM164.528 5.028c1.759 0 2.537 1.364 2.537 2.846s-.778 2.846-2.537 2.846c-1.758 0-2.537-1.364-2.537-2.846s.779-2.846 2.537-2.846zm0 5.117c1.173 0 1.801-1.013 1.801-2.271s-.628-2.27-1.801-2.27c-1.172 0-1.801 1.013-1.801 2.27 0 1.258.629 2.271 1.801 2.271zM168.75 9.804a3.19 3.19 0 0 0 1.418.341c.64 0 1.204-.352 1.204-.97 0-1.289-2.612-1.087-2.612-2.665 0-1.077.874-1.482 1.77-1.482.288 0 .864.064 1.343.246l-.064.586a3.17 3.17 0 0 0-1.204-.256c-.693 0-1.173.213-1.173.906 0 1.013 2.675.885 2.675 2.665 0 1.152-1.077 1.545-1.897 1.545-.522 0-1.045-.064-1.524-.255l.064-.661zM173.728 9.804a3.19 3.19 0 0 0 1.418.341c.64 0 1.204-.352 1.204-.97 0-1.289-2.612-1.087-2.612-2.665 0-1.077.874-1.482 1.77-1.482.288 0 .864.064 1.343.246l-.064.586a3.17 3.17 0 0 0-1.204-.256c-.693 0-1.173.213-1.173.906 0 1.013 2.675.885 2.675 2.665 0 1.152-1.077 1.545-1.897 1.545-.522 0-1.045-.064-1.524-.255l.064-.661zM182.768 10.422a4.454 4.454 0 0 1-1.578.298c-1.801 0-2.473-1.215-2.473-2.846 0-1.663.917-2.846 2.292-2.846 1.535 0 2.164 1.237 2.164 2.697v.341h-3.721c0 1.152.619 2.079 1.791 2.079.49 0 1.205-.203 1.525-.405v.682zm-.331-2.932c0-.949-.384-1.887-1.385-1.887-.992 0-1.599.991-1.599 1.887h2.984zM185.283 6.435c0-.416 0-.842-.042-1.28h.65v.97h.021c.223-.49.628-1.098 1.758-1.098 1.344 0 1.855.895 1.855 2.089v3.475h-.672V7.288c0-1.023-.362-1.684-1.29-1.684-1.226 0-1.61 1.077-1.61 1.983v3.006h-.672V6.435zM191.626 9.804c.405.203.896.341 1.418.341.64 0 1.204-.352 1.204-.97 0-1.289-2.612-1.087-2.612-2.665 0-1.077.874-1.482 1.77-1.482.288 0 .864.064 1.343.246l-.064.586a3.17 3.17 0 0 0-1.204-.256c-.693 0-1.173.213-1.173.906 0 1.013 2.675.885 2.675 2.665 0 1.152-1.077 1.545-1.897 1.545-.522 0-1.045-.064-1.524-.255l.064-.661zM200.559 5.88c-.362-.16-.799-.277-1.162-.277-1.311 0-2.047.949-2.047 2.27 0 1.237.746 2.271 1.972 2.271.427 0 .821-.096 1.226-.245l.064.629c-.459.16-.885.192-1.396.192-1.749 0-2.601-1.333-2.601-2.846 0-1.674 1.077-2.846 2.687-2.846.65 0 1.119.149 1.311.213l-.054.639zM202.584 2.597h.671v3.475h.022a1.844 1.844 0 0 1 1.695-1.045c1.461 0 1.855.97 1.855 2.313v3.251h-.672V7.352c0-.938-.182-1.748-1.289-1.748-1.194 0-1.61 1.13-1.61 2.079v2.91h-.671V2.597zM212.465 9.718h-.021c-.298.65-1.056 1.002-1.727 1.002-1.545 0-1.791-1.045-1.791-1.535 0-1.822 1.941-1.907 3.348-1.907h.128V7c0-.928-.33-1.396-1.236-1.396a2.9 2.9 0 0 0-1.6.447v-.65c.416-.203 1.12-.373 1.6-.373 1.343 0 1.908.608 1.908 2.026v2.399c0 .437 0 .767.054 1.14h-.662v-.875zm-.064-1.865h-.191c-1.162 0-2.547.118-2.547 1.312 0 .714.511.981 1.129.981 1.577 0 1.609-1.375 1.609-1.962v-.331zM215.962 5.731h-1.097v-.575h1.097v-.394c0-1.14.043-2.292 1.44-2.292.212 0 .501.032.628.107l-.043.586a1.186 1.186 0 0 0-.533-.117c-.917 0-.82.991-.82 1.641v.469h1.225v.576h-1.225v4.861h-.673V5.731zM222.229 5.731h-1.236V9.25c0 .49.182.895.726.895.255 0 .426-.053.617-.128l.043.554a2.45 2.45 0 0 1-.821.149c-1.193 0-1.236-.821-1.236-1.812V5.731h-1.065v-.575h1.065V3.845l.672-.235v1.545h1.236v.576zM48.498 18.687c-.469-.245-1.141-.32-1.663-.32-1.929 0-3.017 1.365-3.017 3.209 0 1.876 1.056 3.208 3.017 3.208.49 0 1.237-.064 1.663-.32l.042.64c-.405.246-1.236.32-1.706.32-2.345 0-3.752-1.546-3.752-3.848 0-2.26 1.45-3.848 3.752-3.848.437 0 1.322.075 1.706.277l-.042.682zM53.113 19.732c1.759 0 2.538 1.364 2.538 2.846s-.778 2.846-2.538 2.846c-1.758 0-2.537-1.364-2.537-2.846s.779-2.846 2.537-2.846zm0 5.117c1.173 0 1.801-1.013 1.801-2.271s-.628-2.27-1.801-2.27c-1.172 0-1.801 1.013-1.801 2.27 0 1.258.629 2.271 1.801 2.271zM57.75 21.139c0-.416 0-.842-.042-1.28h.65v.97h.022c.223-.49.628-1.098 1.758-1.098 1.344 0 1.855.895 1.855 2.089v3.475h-.671V21.99c0-1.023-.362-1.684-1.29-1.684-1.226 0-1.61 1.077-1.61 1.983v3.006h-.672v-4.156zM64.967 20.435h-1.098v-.576h1.098v-.394c0-1.14.042-2.292 1.439-2.292.214 0 .501.032.629.106l-.042.587a1.186 1.186 0 0 0-.533-.117c-.916 0-.821.991-.821 1.641v.469h1.226v.576h-1.226v4.861h-.671v-4.861zM72.536 25.125a4.454 4.454 0 0 1-1.578.298c-1.801 0-2.473-1.215-2.473-2.846 0-1.663.917-2.846 2.292-2.846 1.535 0 2.164 1.237 2.164 2.697v.341H69.22c0 1.152.619 2.079 1.791 2.079.49 0 1.205-.203 1.525-.405v.682zm-.331-2.931c0-.949-.384-1.887-1.385-1.887-.992 0-1.6.991-1.6 1.887h2.985zm-1.119-4.435h.842l-1.344 1.535h-.49l.992-1.535zM79.358 25.296h-.672v-.864h-.021c-.363.693-.917.991-1.695.991-1.492 0-2.238-1.236-2.238-2.846 0-1.652.64-2.846 2.238-2.846 1.066 0 1.599.778 1.695 1.045h.021v-3.475h.672v7.995zm-2.282-.447c1.194 0 1.609-1.28 1.609-2.271 0-.991-.416-2.27-1.609-2.27-1.279 0-1.61 1.215-1.61 2.27s.331 2.271 1.61 2.271zM85.455 25.125a4.454 4.454 0 0 1-1.578.298c-1.801 0-2.473-1.215-2.473-2.846 0-1.663.917-2.846 2.292-2.846 1.535 0 2.164 1.237 2.164 2.697v.341h-3.721c0 1.152.619 2.079 1.791 2.079.49 0 1.205-.203 1.525-.405v.682zm-.331-2.931c0-.949-.384-1.887-1.385-1.887-.992 0-1.599.991-1.599 1.887h2.984zm-1.119-4.435h.842l-1.343 1.535h-.49l.991-1.535zM87.971 21.074c0-.597 0-.821-.042-1.215h.671v1.045h.021c.245-.608.704-1.173 1.397-1.173.16 0 .352.032.469.064v.704a1.751 1.751 0 0 0-.49-.064c-1.066 0-1.354 1.194-1.354 2.175v2.687h-.672v-4.223zM95.475 24.422h-.022c-.298.65-1.055 1.002-1.727 1.002-1.545 0-1.79-1.045-1.79-1.535 0-1.822 1.94-1.907 3.347-1.907h.128v-.277c0-.928-.331-1.396-1.237-1.396-.565 0-1.098.128-1.599.447v-.65c.416-.203 1.119-.373 1.599-.373 1.343 0 1.908.608 1.908 2.026v2.399c0 .437 0 .767.053 1.14h-.661v-.876zm-.064-1.865h-.192c-1.162 0-2.548.117-2.548 1.311 0 .714.512.981 1.13.981 1.577 0 1.61-1.375 1.61-1.962v-.33zM100.859 20.435h-1.237v3.518c0 .49.182.895.725.895.256 0 .427-.053.619-.128l.042.554a2.45 2.45 0 0 1-.821.149c-1.194 0-1.237-.821-1.237-1.812v-3.177h-1.066v-.576h1.066v-1.311l.671-.235v1.546h1.237v.577zM103.566 18.409h-.672v-.895h.672v.895zm-.672 1.45h.672v5.437h-.672v-5.437zM108.213 19.732c1.759 0 2.537 1.364 2.537 2.846s-.778 2.846-2.537 2.846c-1.758 0-2.537-1.364-2.537-2.846s.778-2.846 2.537-2.846zm0 5.117c1.173 0 1.801-1.013 1.801-2.271s-.628-2.27-1.801-2.27c-1.172 0-1.801 1.013-1.801 2.27-.001 1.258.628 2.271 1.801 2.271zM112.85 21.139c0-.416 0-.842-.042-1.28h.65v.97h.021c.223-.49.628-1.098 1.758-1.098 1.344 0 1.855.895 1.855 2.089v3.475h-.672V21.99c0-1.023-.362-1.684-1.289-1.684-1.226 0-1.61 1.077-1.61 1.983v3.006h-.672v-4.156zM122.881 24.507a3.19 3.19 0 0 0 1.418.341c.64 0 1.204-.352 1.204-.97 0-1.289-2.612-1.087-2.612-2.665 0-1.077.874-1.482 1.77-1.482.288 0 .864.064 1.343.245l-.064.587a3.17 3.17 0 0 0-1.204-.256c-.693 0-1.173.213-1.173.906 0 1.013 2.675.885 2.675 2.665 0 1.152-1.077 1.546-1.897 1.546-.522 0-1.045-.064-1.524-.255l.064-.662zM132.517 24.017c0 .416 0 .842.043 1.279h-.651v-.97h-.021c-.224.49-.629 1.097-1.759 1.097-1.343 0-1.855-.896-1.855-2.089v-3.475h.671v3.305c0 1.024.363 1.685 1.29 1.685 1.226 0 1.609-1.077 1.609-1.983V19.86h.672v4.157zM135.704 18.409h-.671v-.895h.671v.895zm-.671 1.45h.671v5.437h-.671v-5.437zM137.815 24.507a3.19 3.19 0 0 0 1.418.341c.64 0 1.204-.352 1.204-.97 0-1.289-2.612-1.087-2.612-2.665 0-1.077.874-1.482 1.77-1.482.288 0 .864.064 1.343.245l-.064.587a3.17 3.17 0 0 0-1.204-.256c-.693 0-1.173.213-1.173.906 0 1.013 2.676.885 2.676 2.665 0 1.152-1.077 1.546-1.898 1.546-.522 0-1.045-.064-1.525-.255l.065-.662zM142.793 24.507c.405.203.896.341 1.418.341.64 0 1.204-.352 1.204-.97 0-1.289-2.612-1.087-2.612-2.665 0-1.077.874-1.482 1.77-1.482.288 0 .864.064 1.343.245l-.064.587a3.17 3.17 0 0 0-1.204-.256c-.693 0-1.173.213-1.173.906 0 1.013 2.676.885 2.676 2.665 0 1.152-1.077 1.546-1.898 1.546-.522 0-1.045-.064-1.525-.255l.065-.662zM151.832 25.125a4.454 4.454 0 0 1-1.578.298c-1.801 0-2.473-1.215-2.473-2.846 0-1.663.917-2.846 2.292-2.846 1.535 0 2.164 1.237 2.164 2.697v.341h-3.721c0 1.152.619 2.079 1.791 2.079.49 0 1.205-.203 1.525-.405v.682zm-.33-2.931c0-.949-.384-1.887-1.385-1.887-.992 0-1.6.991-1.6 1.887h2.985zM48.498 33.39c-.469-.245-1.141-.32-1.663-.32-1.929 0-3.017 1.365-3.017 3.209 0 1.876 1.056 3.208 3.017 3.208.49 0 1.237-.064 1.663-.32l.042.64c-.405.246-1.236.32-1.706.32-2.345 0-3.752-1.545-3.752-3.848 0-2.26 1.45-3.848 3.752-3.848.437 0 1.322.074 1.706.277l-.042.682zM53.113 34.435c1.759 0 2.538 1.364 2.538 2.846s-.778 2.846-2.538 2.846c-1.758 0-2.537-1.364-2.537-2.846s.779-2.846 2.537-2.846zm0 5.117c1.173 0 1.801-1.013 1.801-2.271s-.628-2.27-1.801-2.27c-1.172 0-1.801 1.013-1.801 2.27 0 1.258.629 2.271 1.801 2.271zM57.75 35.842c0-.416 0-.842-.042-1.28h.65v.97h.022c.223-.49.628-1.098 1.758-1.098 1.344 0 1.855.895 1.855 2.089V40h-.671v-3.305c0-1.023-.362-1.684-1.29-1.684-1.226 0-1.61 1.077-1.61 1.983V40h-.672v-4.158zM64.967 35.138h-1.098v-.576h1.098v-.394c0-1.14.042-2.292 1.439-2.292.214 0 .501.032.629.107l-.042.586a1.186 1.186 0 0 0-.533-.117c-.916 0-.821.991-.821 1.641v.469h1.226v.576h-1.226V40h-.671v-4.862zM72.536 39.829a4.454 4.454 0 0 1-1.578.298c-1.801 0-2.473-1.215-2.473-2.846 0-1.663.917-2.846 2.292-2.846 1.535 0 2.164 1.237 2.164 2.697v.341H69.22c0 1.152.619 2.079 1.791 2.079.49 0 1.205-.203 1.525-.405v.682zm-.331-2.931c0-.949-.384-1.887-1.385-1.887-.992 0-1.6.991-1.6 1.887h2.985zM79.358 40h-.672v-.864h-.021c-.363.693-.917.991-1.695.991-1.492 0-2.238-1.236-2.238-2.846 0-1.652.64-2.846 2.238-2.846 1.066 0 1.599.778 1.695 1.045h.021v-3.475h.672V40zm-2.282-.448c1.194 0 1.609-1.28 1.609-2.271 0-.991-.416-2.27-1.609-2.27-1.279 0-1.61 1.215-1.61 2.27 0 1.056.331 2.271 1.61 2.271zM85.455 39.829a4.454 4.454 0 0 1-1.578.298c-1.801 0-2.473-1.215-2.473-2.846 0-1.663.917-2.846 2.292-2.846 1.535 0 2.164 1.237 2.164 2.697v.341h-3.721c0 1.152.619 2.079 1.791 2.079.49 0 1.205-.203 1.525-.405v.682zm-.331-2.931c0-.949-.384-1.887-1.385-1.887-.992 0-1.599.991-1.599 1.887h2.984zM87.971 35.778c0-.597 0-.821-.042-1.215h.671v1.045h.021c.245-.607.704-1.172 1.397-1.172.16 0 .352.032.469.064v.704a1.751 1.751 0 0 0-.49-.064c-1.066 0-1.354 1.194-1.354 2.175V40h-.672v-4.222zM95.475 39.126h-.022c-.298.65-1.055 1.002-1.727 1.002-1.545 0-1.79-1.045-1.79-1.535 0-1.822 1.94-1.907 3.347-1.907h.128v-.277c0-.928-.331-1.396-1.237-1.396-.565 0-1.098.128-1.599.447v-.65c.416-.203 1.119-.373 1.599-.373 1.343 0 1.908.608 1.908 2.025v2.399c0 .437 0 .767.053 1.14h-.661v-.875zm-.064-1.866h-.192c-1.162 0-2.548.118-2.548 1.312 0 .714.512.981 1.13.981 1.577 0 1.61-1.375 1.61-1.962v-.331zM98.012 39.435l3.273-4.297H98.14v-.576h3.923v.576l-3.272 4.285h3.272V40h-4.05v-.565zM104.749 33.113h-.672v-.895h.672v.895zm-.671 1.45h.672V40h-.672v-5.437zM109.396 34.435c1.759 0 2.537 1.364 2.537 2.846s-.778 2.846-2.537 2.846c-1.758 0-2.537-1.364-2.537-2.846s.779-2.846 2.537-2.846zm0 5.117c1.173 0 1.801-1.013 1.801-2.271s-.628-2.27-1.801-2.27c-1.172 0-1.801 1.013-1.801 2.27 0 1.258.629 2.271 1.801 2.271zM114.033 35.842c0-.416 0-.842-.042-1.28h.65v.97h.021c.223-.49.628-1.098 1.758-1.098 1.344 0 1.855.895 1.855 2.089V40h-.672v-3.305c0-1.023-.362-1.684-1.289-1.684-1.226 0-1.61 1.077-1.61 1.983V40h-.672v-4.158zM124.438 39.829a4.454 4.454 0 0 1-1.578.298c-1.801 0-2.473-1.215-2.473-2.846 0-1.663.917-2.846 2.292-2.846 1.535 0 2.164 1.237 2.164 2.697v.341h-3.721c0 1.152.619 2.079 1.791 2.079.49 0 1.205-.203 1.525-.405v.682zm-.331-2.931c0-.949-.384-1.887-1.385-1.887-.992 0-1.6.991-1.6 1.887h2.985zM130.513 39.051c.437.277.948.437 1.641.437.917 0 1.674-.469 1.674-1.524 0-1.461-3.411-1.642-3.411-3.593 0-1.194 1.045-1.94 2.356-1.94.362 0 .948.053 1.46.245l-.117.672c-.331-.182-.853-.277-1.354-.277-.767 0-1.609.32-1.609 1.279 0 1.493 3.411 1.503 3.411 3.678 0 1.503-1.289 2.1-2.441 2.1-.725 0-1.29-.149-1.684-.32l.074-.757zM138.69 40h-.789l-1.844-5.437h.736l1.503 4.702h.021l1.578-4.702h.703L138.69 40zM143.039 33.113h-.671v-.895h.671v.895zm-.672 1.45h.671V40h-.671v-5.437zM145.064 39.435l3.273-4.297h-3.145v-.576h3.923v.576l-3.272 4.285h3.272V40h-4.05v-.565zM150.628 39.435l3.273-4.297h-3.145v-.576h3.923v.576l-3.272 4.285h3.272V40h-4.05v-.565zM160.339 39.829a4.454 4.454 0 0 1-1.578.298c-1.801 0-2.473-1.215-2.473-2.846 0-1.663.917-2.846 2.292-2.846 1.535 0 2.164 1.237 2.164 2.697v.341h-3.721c0 1.152.619 2.079 1.791 2.079.49 0 1.205-.203 1.525-.405v.682zm-.331-2.931c0-.949-.384-1.887-1.385-1.887-.992 0-1.599.991-1.599 1.887h2.984zM162.855 35.778c0-.597 0-.821-.042-1.215h.671v1.045h.021c.245-.607.704-1.172 1.397-1.172.16 0 .352.032.469.064v.704a1.751 1.751 0 0 0-.49-.064c-1.066 0-1.354 1.194-1.354 2.175V40h-.671v-4.222zM170.359 39.126h-.022c-.298.65-1.055 1.002-1.727 1.002-1.545 0-1.79-1.045-1.79-1.535 0-1.822 1.94-1.907 3.347-1.907h.128v-.277c0-.928-.331-1.396-1.237-1.396-.565 0-1.098.128-1.599.447v-.65c.416-.203 1.119-.373 1.599-.373 1.343 0 1.908.608 1.908 2.025v2.399c0 .437 0 .767.053 1.14h-.661v-.875zm-.064-1.866h-.192c-1.162 0-2.548.118-2.548 1.312 0 .714.512.981 1.13.981 1.577 0 1.61-1.375 1.61-1.962v-.331zM48.498 48.093c-.469-.245-1.141-.32-1.663-.32-1.929 0-3.017 1.365-3.017 3.209 0 1.876 1.056 3.208 3.017 3.208.49 0 1.237-.064 1.663-.32l.042.64c-.405.246-1.236.32-1.706.32-2.345 0-3.752-1.545-3.752-3.848 0-2.26 1.45-3.848 3.752-3.848.437 0 1.322.074 1.706.277l-.042.682zM53.113 49.138c1.759 0 2.538 1.364 2.538 2.846s-.778 2.846-2.538 2.846c-1.758 0-2.537-1.364-2.537-2.846s.779-2.846 2.537-2.846zm0 5.117c1.173 0 1.801-1.013 1.801-2.271s-.628-2.27-1.801-2.27c-1.172 0-1.801 1.013-1.801 2.27 0 1.258.629 2.271 1.801 2.271zM57.75 50.545c0-.416 0-.842-.042-1.28h.65v.97h.022c.223-.49.628-1.098 1.758-1.098 1.344 0 1.855.896 1.855 2.089v3.475h-.671v-3.305c0-1.023-.362-1.684-1.29-1.684-1.226 0-1.61 1.077-1.61 1.982V54.7h-.672v-4.155zM64.967 49.841h-1.098v-.576h1.098v-.394c0-1.14.042-2.292 1.439-2.292.214 0 .501.032.629.107l-.042.586a1.186 1.186 0 0 0-.533-.117c-.916 0-.821.991-.821 1.641v.469h1.226v.576h-1.226v4.861h-.671v-4.861zM72.536 54.532a4.454 4.454 0 0 1-1.578.298c-1.801 0-2.473-1.215-2.473-2.846 0-1.663.917-2.846 2.292-2.846 1.535 0 2.164 1.237 2.164 2.697v.341H69.22c0 1.151.619 2.079 1.791 2.079.49 0 1.205-.202 1.525-.405v.682zm-.331-2.932c0-.949-.384-1.887-1.385-1.887-.992 0-1.6.991-1.6 1.887h2.985zM79.358 54.703h-.672v-.864h-.021c-.363.693-.917.991-1.695.991-1.492 0-2.238-1.236-2.238-2.846 0-1.652.64-2.846 2.238-2.846 1.066 0 1.599.778 1.695 1.045h.021v-3.475h.672v7.995zm-2.282-.448c1.194 0 1.609-1.28 1.609-2.271 0-.991-.416-2.27-1.609-2.27-1.279 0-1.61 1.215-1.61 2.27 0 1.056.331 2.271 1.61 2.271zM85.455 54.532a4.454 4.454 0 0 1-1.578.298c-1.801 0-2.473-1.215-2.473-2.846 0-1.663.917-2.846 2.292-2.846 1.535 0 2.164 1.237 2.164 2.697v.341h-3.721c0 1.151.619 2.079 1.791 2.079.49 0 1.205-.202 1.525-.405v.682zm-.331-2.932c0-.949-.384-1.887-1.385-1.887-.992 0-1.599.991-1.599 1.887h2.984zM87.971 50.481c0-.597 0-.821-.042-1.215h.671v1.045h.021c.245-.607.704-1.172 1.397-1.172.16 0 .352.032.469.064v.704a1.751 1.751 0 0 0-.49-.064c-1.066 0-1.354 1.194-1.354 2.175v2.687h-.672v-4.224zM95.475 53.828h-.022c-.298.65-1.055 1.002-1.727 1.002-1.545 0-1.79-1.045-1.79-1.535 0-1.822 1.94-1.908 3.347-1.908h.128v-.277c0-.927-.331-1.396-1.237-1.396-.565 0-1.098.128-1.599.447v-.65c.416-.203 1.119-.373 1.599-.373 1.343 0 1.908.608 1.908 2.026v2.399c0 .437 0 .767.053 1.14h-.661v-.875zm-.064-1.865h-.192c-1.162 0-2.548.118-2.548 1.312 0 .714.512.981 1.13.981 1.577 0 1.61-1.375 1.61-1.962v-.331zM98.012 54.138l3.273-4.297H98.14v-.576h3.923v.576l-3.272 4.285h3.272v.576h-4.05v-.564zM104.749 47.816h-.672v-.895h.672v.895zm-.671 1.45h.672v5.437h-.672v-5.437zM111.517 53.423c0 .416 0 .842.043 1.279h-.651v-.97h-.021c-.224.49-.629 1.097-1.759 1.097-1.343 0-1.855-.895-1.855-2.089v-3.475h.672v3.305c0 1.024.363 1.685 1.29 1.685 1.226 0 1.609-1.077 1.609-1.983v-3.006h.671v4.157zM114.033 50.545c0-.416 0-.842-.042-1.28h.65v.97h.021c.223-.49.628-1.098 1.758-1.098 1.344 0 1.855.896 1.855 2.089v3.475h-.672v-3.305c0-1.023-.362-1.684-1.289-1.684-1.226 0-1.61 1.077-1.61 1.982V54.7h-.672v-4.155zM124.064 53.914a3.19 3.19 0 0 0 1.418.341c.64 0 1.204-.352 1.204-.97 0-1.29-2.612-1.087-2.612-2.665 0-1.077.874-1.482 1.77-1.482.288 0 .864.064 1.343.245l-.064.586a3.17 3.17 0 0 0-1.204-.256c-.693 0-1.173.213-1.173.906 0 1.013 2.675.885 2.675 2.665 0 1.152-1.077 1.545-1.897 1.545-.522 0-1.045-.064-1.524-.255l.064-.66zM131.344 54.703h-.789l-1.844-5.437h.736l1.503 4.702h.021l1.578-4.702h.703l-1.908 5.437zM135.694 47.816h-.671v-.895h.671v.895zm-.672 1.45h.671v5.437h-.671v-5.437zM137.719 54.138l3.273-4.297h-3.145v-.576h3.923v.576l-3.272 4.285h3.272v.576h-4.05v-.564zM143.784 50.481c0-.597 0-.821-.042-1.215h.672v1.045h.021c.245-.607.704-1.172 1.397-1.172.16 0 .352.032.469.064v.704a1.751 1.751 0 0 0-.49-.064c-1.066 0-1.354 1.194-1.354 2.175v2.687h-.672v-4.224zM151.288 53.828h-.021c-.298.65-1.055 1.002-1.727 1.002-1.546 0-1.79-1.045-1.79-1.535 0-1.822 1.94-1.908 3.347-1.908h.128v-.277c0-.927-.331-1.396-1.237-1.396-.565 0-1.098.128-1.599.447v-.65c.416-.203 1.119-.373 1.599-.373 1.343 0 1.908.608 1.908 2.026v2.399c0 .437 0 .767.053 1.14h-.661v-.875zm-.063-1.865h-.192c-1.162 0-2.548.118-2.548 1.312 0 .714.512.981 1.13.981 1.577 0 1.61-1.375 1.61-1.962v-.331z"/></g><path fill="#F00" d="M30.989 2.827S25.351.358 15.912.358h-.003C6.469.358.83 2.827.83 2.827S.325 13.76 2.465 19.942c3.78 10.87 13.442 13.923 13.442 13.923h.006s9.66-3.053 13.442-13.923c2.14-6.182 1.634-17.115 1.634-17.115z"/><path fill="#FFF" d="M25.93 12.252v6.024h-7.028v7.028h-6.024v-7.028H5.85v-6.024h7.028V5.226h6.023l.001 7.026z"/></svg>